<svg xmlns="http://www.w3.org/2000/svg" width="48" height="37" viewBox="0 0 48 37">
  <defs>
    <style>
      .cls-1 {
        fill: #fff;
        fill-rule: evenodd;
      }
    </style>
  </defs>
  <path id="Forma_1" data-name="Forma 1" class="cls-1" d="M59.554,2314.34a1.989,1.989,0,0,1-.554-1.29,2.012,2.012,0,0,1,.554-1.3l2.585-2.59a1.782,1.782,0,0,1,2.584,0l0.185,0.19,10.154,10.92a0.891,0.891,0,0,0,1.292,0l24.738-25.73h0.184a1.783,1.783,0,0,1,2.585,0l2.585,2.59a1.792,1.792,0,0,1,0,2.59h0l-29.539,30.72a1.771,1.771,0,0,1-2.585,0l-14.4-15.54Z" transform="translate(-59 -2294)"/>
</svg>
